<svg width="32" height="32" viewBox="0 0 32 32" fill="none" xmlns="http://www.w3.org/2000/svg">
<rect width="32" height="32" rx="16" fill="black"/>
<path d="M18.1544 15.9329C18.1544 15.9329 18.9402 15.8683 18.9402 15.1429C18.9402 14.4175 18.9402 10.2936 18.9402 9.82163C18.9402 9.34962 18.8117 8.5 17.7986 8.5H13.9834H13V23.5H17.7838C17.7838 23.5 18.9995 23.5099 18.9995 22.2777C18.9995 20.8716 18.9995 16.7875 18.9995 16.7875C18.9995 16.7875 19.0538 15.9329 18.1544 15.9329ZM15.1893 10.5172C15.1893 10.5172 15.9503 10.5172 16.3457 10.5172C16.741 10.5172 16.6965 10.8302 16.6965 10.8302C16.6965 10.8302 16.6965 14.502 16.6965 14.7902C16.6965 15.0783 16.4445 15.0237 16.4445 15.0237H15.1893V10.5172ZM16.7904 17.3837C16.7904 17.3837 16.7904 20.8617 16.7904 21.2194C16.7904 21.5772 16.4396 21.5722 16.4396 21.5722H15.1893V16.9415C15.1893 16.9415 15.891 16.9564 16.3654 16.9564C16.8399 16.9564 16.7904 17.3837 16.7904 17.3837Z" fill="white" stroke="white" stroke-width="0.0494189" stroke-miterlimit="10"/>
</svg>
