
<svg xmlns="http://www.w3.org/2000/svg" width="32" height="32" fill="none">
  <circle cx="16" cy="16" r="16" fill="#5356FF"/>
  <g transform="translate(9, 10)">
    <path fill="#fff" d="M12.842 2.596L14 0.002H3.586v2.768h8.921c.27 0 .335-.174.335-.174Z"/>
    <path fill="#fff" d="M12.842 7.326L14 4.763H3.611l-.593-.422c-.285-.183-.273-.567-.273-.567V0H0.362c-.308 0-.36.281-.36.281v4.965c0 .345.232.515.232.515l4.932 3.456-4.835.013c-.32 0-.331.27-.331.27V12h13.998l-6.431-4.47h4.965c.221 0 .31-.204.31-.204Z"/>
  </g>
</svg>