<svg width="32" height="32" viewBox="0 0 32 32" fill="none" xmlns="http://www.w3.org/2000/svg">
<path d="M21.8419 12.5959L23.0001 10.0017H12.5864V12.7696H21.5075C21.7777 12.7696 21.8419 12.5959 21.8419 12.5959Z" fill="white"/>
<path d="M21.8419 17.3261L23.0001 14.7633H12.6111L12.018 14.3414C11.733 14.1577 11.7446 13.7739 11.7446 13.7739V10C11.7446 10 9.6704 10 9.36232 10C9.05424 10 9.00153 10.2813 9.00153 10.2813C9.00153 10.2813 9.00153 14.9022 9.00153 15.2464C9.00153 15.5905 9.23382 15.7609 9.23382 15.7609L14.1664 19.2172C14.1664 19.2172 9.65063 19.2304 9.33102 19.2304C9.01141 19.2304 8.99988 19.5001 8.99988 19.5001V22H22.9985L16.5667 17.5296H21.5322C21.753 17.5296 21.8419 17.3261 21.8419 17.3261Z" fill="white"/>
</svg>
