<svg width="171" height="89" viewBox="0 0 171 89" fill="none" xmlns="http://www.w3.org/2000/svg">
<path d="M105.599 8.91565L109.594 0.00568663H73.6757V9.5123H104.446C105.378 9.5123 105.599 8.91565 105.599 8.91565Z" fill="#5356FF"/>
<path d="M105.599 25.1616L109.594 16.3596H73.7609L71.7153 14.9106C70.7322 14.2798 70.772 12.9615 70.772 12.9615V0C70.772 0 63.6179 0 62.5553 0C61.4927 0 61.3109 0.966004 61.3109 0.966004C61.3109 0.966004 61.3109 16.8369 61.3109 18.0188C61.3109 19.2008 62.1121 19.786 62.1121 19.786L79.1251 31.6565C79.1251 31.6565 63.5497 31.702 62.4473 31.702C61.345 31.702 61.3052 32.6282 61.3052 32.6282V41.2143H109.588L87.4043 25.8605H104.531C105.292 25.8605 105.599 25.1616 105.599 25.1616Z" fill="#5356FF"/>
<path d="M29.2225 64.0292V70.1037H9.94218C9.94218 70.1037 7.61808 69.9673 7.61808 71.4277C7.61808 72.888 10.0104 72.7517 13.505 73.1551C14.1471 73.2006 14.7892 73.2631 15.4314 73.3142C16.6758 73.4222 17.9202 73.5301 19.1704 73.6495C20.3409 73.7574 21.5172 73.8654 22.6877 73.9961C23.7788 74.1154 24.8527 74.3427 25.9267 74.553C26.4495 74.6553 26.9723 74.7859 27.4837 74.9621C28.3417 75.2633 29.16 75.7292 29.7623 76.4225C30.4044 77.1498 30.7567 78.1101 30.9158 79.0591C30.9442 79.2182 30.9613 79.3716 30.9783 79.5307C31.0636 80.3035 31.0295 81.082 31.0238 81.8548C31.0181 83.0254 31.0693 84.1335 30.5806 85.2302C29.7907 87.0201 28.1769 87.9577 26.3472 88.435C24.7902 88.8385 23.1708 88.9521 21.5683 88.9521C21.1762 88.9521 20.7898 88.9464 20.3978 88.9351H1.32201V82.7981L21.7672 82.6901C21.7672 82.6901 23.5231 82.6617 23.4946 81.4741C23.4833 80.0137 22.1707 80.0421 19.0397 79.7467L8.74888 78.7182C8.74888 78.7182 4.26548 78.3488 2.33915 76.8202C1.53794 76.1838 0.964017 75.303 0.668534 74.3257C0.282132 73.0471 0.41283 71.6777 0.458289 70.3651C0.481018 69.6263 0.509426 68.9274 0.75945 68.2285C0.918557 67.7739 1.15153 67.342 1.44134 66.9556C2.24255 65.8987 3.4529 65.2396 4.69166 64.8247C6.49297 64.2224 8.42498 64.0576 10.3115 64.0349H29.2225V64.0292Z" fill="white"/>
<path d="M135.057 64.1656H127.442V88.9408H135.057V64.1656Z" fill="white"/>
<path d="M37.621 58.2275H45.1559V62.4666C45.1559 62.4666 44.9627 64.0235 46.7128 64.0235C48.463 64.0235 54.958 64.0235 54.958 64.0235V70.3423H46.9572C46.9572 70.3423 45.1559 70.1548 45.1559 72.1436C45.1559 74.2802 45.1559 80.099 45.1559 80.099C45.1843 81.3718 45.3604 82.5651 47.6675 82.6106H56.8445V88.9408H45.2127C45.2127 88.9408 40.8998 89.1453 38.8939 86.2018C37.7688 84.6278 37.5074 81.298 37.6153 77.2123V71.9391C37.6153 71.9391 37.8313 70.3253 36.0016 70.3253C34.1718 70.3253 34.2457 70.3253 34.2457 70.3253V64.0292H36.1777C36.1777 64.0292 37.6722 63.9951 37.6722 62.5347C37.6722 61.0744 37.621 58.2275 37.621 58.2275Z" fill="white"/>
<path d="M61.5723 83.5595V63.9724H69.1923V80.9911C69.1923 80.9911 69.073 82.6276 70.8288 82.6276C72.5847 82.6276 77.284 82.6276 77.284 82.6276C77.284 82.6276 79.7672 82.6163 79.7672 80.0876V63.9724H87.2964V88.9351H79.9263L79.1024 87.236C79.1024 87.236 77.6193 88.5657 76.5396 88.7476C75.46 88.9351 73.1529 88.9351 73.1529 88.9351H67.0614C67.0557 88.9408 61.362 89.0771 61.5723 83.5595Z" fill="white"/>
<path d="M131.25 60.6766C133.562 60.6766 135.437 58.8016 135.437 56.4887C135.437 54.1758 133.562 52.3008 131.25 52.3008C128.937 52.3008 127.062 54.1758 127.062 56.4887C127.062 58.8016 128.937 60.6766 131.25 60.6766Z" fill="white"/>
<path d="M113.714 55.7443V60.2732C113.714 60.2732 113.731 59.722 113.731 62.012C113.731 64.302 111.714 64.0292 111.714 64.0292C111.714 64.0292 110.708 64.0292 104.952 64.0292C99.1953 64.0292 95.6211 67.3704 95.6211 67.3704C92.7572 69.7627 91.4502 75.6156 92.7344 80.6956C94.6153 89.0373 103.946 88.9464 103.946 88.9464C103.946 88.9464 108.492 88.9464 111.003 88.9464C113.515 88.9464 114.839 86.1734 114.839 86.1734L115.964 88.9464H121.3V55.7443H113.714ZM111.549 82.6788H105.23C101.491 82.6788 98.9794 80.5308 98.9794 76.4282C98.9794 76.1724 98.6441 71.655 103.792 70.5014C104.576 70.3253 105.48 70.3366 106.537 70.3366H112.276C112.276 70.3366 113.719 70.2173 113.719 72.0527C113.719 72.0527 113.719 79.4228 113.719 80.5081C113.719 81.5934 113.742 82.6788 111.549 82.6788Z" fill="white"/>
<path d="M158.4 64.0065H154.24C150.183 63.9269 147.694 64.2906 145.637 65.3646C139.466 68.5808 139.819 76.0929 139.836 76.3202C139.836 78.65 140.205 81.0366 141.273 83.1334C142.222 84.9858 143.717 86.486 145.546 87.4633C146.939 88.2077 148.49 88.6509 150.053 88.8441C150.786 88.9351 151.507 88.9351 152.24 88.9464C154.456 88.9748 156.678 89.0658 158.894 88.918C161.707 88.7305 164.923 88.1111 166.997 86.0427C170.555 82.4856 170.6 78.6613 170.6 76.2179C170.611 63.4098 158.4 64.0065 158.4 64.0065ZM158.82 82.639C154.61 82.6731 152.314 82.639 152.314 82.639C152.314 82.639 146.643 83.0197 146.762 77.0873C146.762 76.2406 146.762 75.6667 146.762 75.2917C146.762 75.2917 146.586 70.4048 151.882 70.4048H158.553C158.553 70.4048 163.736 70.0014 163.736 75.5872C163.901 79.3034 163.116 82.6049 158.82 82.639Z" fill="white"/>
</svg>
