<svg aria-hidden="true" style="position: absolute; width: 0; height: 0; overflow: hidden;" version="1.1" xmlns="http://www.w3.org/2000/svg" xmlns:xlink="http://www.w3.org/1999/xlink">
<defs>
<symbol id="icon-logo" viewBox="0 0 79 32">
<path fill="#fff" style="fill: var(--color1, #fff)" d="M10.438 14.972c0 0 1.591-0.13 1.591-1.591v-10.719c0-0.951-0.26-2.662-2.312-2.662h-9.718v30.214h9.688c0 0 2.462 0.020 2.462-2.462v-11.059c0 0 0.11-1.721-1.711-1.721zM4.434 4.063h2.342c0.801 0 0.711 0.63 0.711 0.63v7.976c0 0.58-0.51 0.47-0.51 0.47h-2.542v-9.077zM7.676 17.894v7.726c0 0.721-0.711 0.711-0.711 0.711h-2.532v-9.327c0 0 1.421 0.030 2.382 0.030s0.861 0.861 0.861 0.861zM34.187 30.214h-4.614v-30.154l4.614-0.060v30.214zM39.922 4.163h-3.603v-4.163h11.95v4.073h-3.803v26.141h-4.544v-26.051zM58.787 17.624c0 1.351 0.701 2.452 0.701 2.452s0.52 0.921 0.731 1.351c0.21 0.43 0.040 0.59 0.040 0.59l-1.751 3.283-3.643-6.325v-18.975h-4.534v19.175l4.534 7.916c-2.622 3.753 0.080 5.394 0.871 4.784 0.462-0.357 0.316-0.683 0.114-1.132-0.143-0.319-0.314-0.701-0.314-1.2 0-1.201 0.63-0.32 0.63-0.32l0.631 0.971 4.634-7.806 1.831-3.563v-18.825h-4.474v17.624zM65.352 10.959l6.295-10.959 6.845 11.089v19.115h-4.533v-9.177l-4.083-0.030 0.040 9.197h-4.564v-19.235zM69.816 17.134h4.133v-5.885l-3.733-6.255-1.901 3.143c0 0-0.21 0.27 0 0.671l0.891 1.581 0.331 0.57c0 0 0.23 0.35 0.23 0.931s0.050 5.244 0.050 5.244zM14.722 0.010l8.817 0.050c2.162 0.050 3.513 0.821 3.583 2.722v11.319c0 1.611-2.002 2.912-2.002 2.912l2.002 3.433v9.768h-4.474v-9.408l-2.092-3.493h-1.381v12.9h-4.454v-30.204zM22.388 12.86v-8.347c0 0 0.15-0.52-0.52-0.52s-2.622 0.050-2.622 0.050v9.357h2.602c0 0 0.54 0.040 0.54-0.54z"></path>
<path fill="#bebebe" style="fill: var(--color2, #bebebe)" d="M59.488 20.076c0 0-0.701-1.101-0.701-2.452v-17.624h4.474v18.825l-1.831 3.563-2.922 4.923v-2.011l1.751-3.283c0 0 0.17-0.16-0.040-0.59s-0.731-1.351-0.731-1.351z"></path>
</symbol>
</defs>
</svg>



