<svg aria-hidden="true" style="position: absolute; width: 0; height: 0; overflow: hidden;" version="1.1" xmlns="http://www.w3.org/2000/svg" xmlns:xlink="http://www.w3.org/1999/xlink">
<defs>
<symbol id="icon-logo" viewBox="0 0 61 32">
<path fill="#5356ff" style="fill: var(--color1, #5356ff)" d="M37.968 3.206l1.436-3.204h-12.914v3.418h11.063c0.335 0 0.415-0.215 0.415-0.215z"></path>
<path fill="#5356ff" style="fill: var(--color1, #5356ff)" d="M37.968 9.047l1.436-3.165h-12.884l-0.736-0.521c-0.353-0.227-0.339-0.701-0.339-0.701v-4.66c0 0-2.572 0-2.954 0s-0.447 0.347-0.447 0.347c0 0 0 5.706 0 6.131s0.288 0.635 0.288 0.635l6.117 4.268c0 0-5.6 0.016-5.997 0.016s-0.411 0.333-0.411 0.333v3.087h17.36l-7.976-5.52h6.158c0.274 0 0.384-0.251 0.384-0.251z"></path>
<path fill="#fff" style="fill: var(--color2, #fff)" d="M10.507 23.022v2.184h-6.932c0 0-0.836-0.049-0.836 0.476s0.86 0.476 2.117 0.621c0.231 0.016 0.462 0.039 0.693 0.057 0.447 0.039 0.895 0.078 1.344 0.121 0.421 0.039 0.844 0.078 1.265 0.125 0.392 0.043 0.778 0.125 1.165 0.2 0.188 0.037 0.376 0.084 0.56 0.147 0.309 0.108 0.603 0.276 0.819 0.525 0.231 0.262 0.358 0.607 0.415 0.948 0.010 0.057 0.016 0.112 0.022 0.17 0.031 0.278 0.018 0.558 0.016 0.836-0.002 0.421 0.016 0.819-0.159 1.214-0.284 0.644-0.864 0.981-1.522 1.152-0.56 0.145-1.142 0.186-1.718 0.186-0.141 0-0.28-0.002-0.421-0.006h-6.859v-2.207l7.351-0.039c0 0 0.631-0.010 0.621-0.437-0.004-0.525-0.476-0.515-1.602-0.621l-3.7-0.37c0 0-1.612-0.133-2.305-0.682-0.288-0.229-0.494-0.546-0.601-0.897-0.139-0.46-0.092-0.952-0.076-1.424 0.008-0.266 0.018-0.517 0.108-0.768 0.057-0.163 0.141-0.319 0.245-0.458 0.288-0.38 0.723-0.617 1.169-0.766 0.648-0.217 1.342-0.276 2.021-0.284l6.799-0.002z"></path>
<path fill="#fff" style="fill: var(--color2, #fff)" d="M48.56 23.071h-2.738v8.908h2.738v-8.908z"></path>
<path fill="#fff" style="fill: var(--color2, #fff)" d="M13.527 20.936h2.709v1.524c0 0-0.069 0.56 0.56 0.56s2.965 0 2.965 0v2.272h-2.877c0 0-0.648-0.067-0.648 0.648 0 0.768 0 2.86 0 2.86 0.010 0.458 0.074 0.887 0.903 0.903h3.3v2.276h-4.182c0 0-1.551 0.074-2.272-0.985-0.405-0.566-0.499-1.763-0.46-3.232v-1.896c0 0 0.078-0.58-0.58-0.58s-0.631 0-0.631 0v-2.264h0.695c0 0 0.537-0.012 0.537-0.537s-0.018-1.549-0.018-1.549z"></path>
<path fill="#fff" style="fill: var(--color2, #fff)" d="M22.138 30.044v-7.043h2.74v6.119c0 0-0.043 0.588 0.588 0.588s2.321 0 2.321 0 0.893-0.004 0.893-0.913v-5.794h2.707v8.975h-2.65l-0.296-0.611c0 0-0.533 0.478-0.921 0.544-0.388 0.067-1.218 0.067-1.218 0.067h-2.19c-0.002 0.002-2.049 0.051-1.974-1.933z"></path>
<path fill="#fff" style="fill: var(--color2, #fff)" d="M47.191 21.816c0.831 0 1.505-0.674 1.505-1.506s-0.674-1.506-1.505-1.506c-0.832 0-1.506 0.674-1.506 1.506s0.674 1.506 1.506 1.506z"></path>
<path fill="#fff" style="fill: var(--color2, #fff)" d="M40.886 20.043v1.628c0 0 0.006-0.198 0.006 0.625s-0.725 0.725-0.725 0.725c0 0-0.362 0-2.431 0s-3.355 1.201-3.355 1.201c-1.030 0.86-1.5 2.965-1.038 4.791 0.676 2.999 4.031 2.967 4.031 2.967s1.635 0 2.537 0c0.903 0 1.379-0.997 1.379-0.997l0.404 0.997h1.919v-11.938h-2.728zM40.108 29.727h-2.272c-1.344 0-2.247-0.772-2.247-2.247 0-0.092-0.121-1.716 1.73-2.131 0.282-0.063 0.607-0.059 0.987-0.059h2.063c0 0 0.519-0.043 0.519 0.617 0 0 0 2.65 0 3.040s0.008 0.78-0.78 0.78z"></path>
<path fill="#fff" style="fill: var(--color2, #fff)" d="M56.953 23.014h-1.496c-1.459-0.029-2.354 0.102-3.093 0.488-2.219 1.156-2.092 3.857-2.086 3.939 0 0.838 0.133 1.696 0.517 2.45 0.341 0.666 0.879 1.205 1.536 1.557 0.501 0.268 1.059 0.427 1.62 0.496 0.264 0.033 0.523 0.033 0.786 0.037 0.797 0.010 1.596 0.043 2.392-0.010 1.011-0.067 2.168-0.29 2.913-1.034 1.279-1.279 1.295-2.654 1.295-3.532 0.004-4.605-4.387-4.391-4.387-4.391zM57.104 29.713c-1.514 0.012-2.339 0-2.339 0s-2.039 0.137-1.996-1.996c0-0.304 0-0.511 0-0.646 0 0-0.063-1.757 1.841-1.757h2.399c0 0 1.864-0.145 1.864 1.863 0.059 1.336-0.223 2.523-1.768 2.535z"></path>
</symbol>
</defs>
</svg>



