<svg width="49" height="42" viewBox="0 0 49 42" fill="none" xmlns="http://www.w3.org/2000/svg">
<path d="M44.5993 8.91565L48.594 0.00568663H12.6757V9.5123H43.4458C44.3777 9.5123 44.5993 8.91565 44.5993 8.91565Z" fill="#5356FF"/>
<path d="M44.5993 25.1616L48.594 16.3596H12.7609L10.7153 14.9106C9.73224 14.2798 9.77201 12.9615 9.77201 12.9615V0C9.77201 0 2.6179 0 1.5553 0C0.492694 0 0.310857 0.966004 0.310857 0.966004C0.310857 0.966004 0.310857 16.8369 0.310857 18.0188C0.310857 19.2008 1.11207 19.786 1.11207 19.786L18.1251 31.6565C18.1251 31.6565 2.54971 31.702 1.44733 31.702C0.344951 31.702 0.305176 32.6282 0.305176 32.6282V41.2143H48.5883L26.4043 25.8605H43.531C44.2924 25.8605 44.5993 25.1616 44.5993 25.1616Z" fill="#5356FF"/>
</svg>
