<svg width="171" height="37" viewBox="0 0 171 37" fill="none" xmlns="http://www.w3.org/2000/svg">
<path d="M29.2225 12.0292V18.1037H9.94218C9.94218 18.1037 7.61808 17.9673 7.61808 19.4277C7.61808 20.888 10.0104 20.7517 13.505 21.1551C14.1471 21.2006 14.7892 21.2631 15.4314 21.3142C16.6758 21.4222 17.9202 21.5301 19.1704 21.6495C20.3409 21.7574 21.5172 21.8654 22.6877 21.9961C23.7788 22.1154 24.8527 22.3427 25.9267 22.553C26.4495 22.6553 26.9723 22.7859 27.4837 22.9621C28.3417 23.2633 29.16 23.7292 29.7623 24.4225C30.4044 25.1498 30.7567 26.1101 30.9158 27.0591C30.9442 27.2182 30.9613 27.3716 30.9783 27.5307C31.0636 28.3035 31.0295 29.082 31.0238 29.8548C31.0181 31.0254 31.0693 32.1335 30.5806 33.2302C29.7907 35.0201 28.1769 35.9577 26.3472 36.435C24.7902 36.8385 23.1708 36.9521 21.5683 36.9521C21.1762 36.9521 20.7898 36.9464 20.3978 36.9351H1.32201V30.7981L21.7672 30.6901C21.7672 30.6901 23.5231 30.6617 23.4946 29.4741C23.4833 28.0137 22.1707 28.0421 19.0397 27.7467L8.74888 26.7182C8.74888 26.7182 4.26548 26.3488 2.33915 24.8202C1.53794 24.1838 0.964017 23.303 0.668534 22.3257C0.282132 21.0471 0.41283 19.6777 0.458289 18.3651C0.481018 17.6263 0.509426 16.9274 0.75945 16.2285C0.918557 15.7739 1.15153 15.342 1.44134 14.9556C2.24255 13.8987 3.4529 13.2396 4.69166 12.8247C6.49297 12.2224 8.42498 12.0576 10.3115 12.0349H29.2225V12.0292Z" fill="white"/>
<path d="M135.057 12.1656H127.442V36.9408H135.057V12.1656Z" fill="white"/>
<path d="M37.621 6.2275H45.1559V10.4666C45.1559 10.4666 44.9627 12.0235 46.7128 12.0235C48.463 12.0235 54.958 12.0235 54.958 12.0235V18.3423H46.9572C46.9572 18.3423 45.1559 18.1548 45.1559 20.1436C45.1559 22.2802 45.1559 28.099 45.1559 28.099C45.1843 29.3718 45.3604 30.5651 47.6675 30.6106H56.8445V36.9408H45.2127C45.2127 36.9408 40.8998 37.1453 38.8939 34.2018C37.7688 32.6278 37.5074 29.298 37.6153 25.2123V19.9391C37.6153 19.9391 37.8313 18.3253 36.0016 18.3253C34.1718 18.3253 34.2457 18.3253 34.2457 18.3253V12.0292H36.1777C36.1777 12.0292 37.6722 11.9951 37.6722 10.5347C37.6722 9.07437 37.621 6.2275 37.621 6.2275Z" fill="white"/>
<path d="M61.5723 31.5595V11.9724H69.1923V28.9911C69.1923 28.9911 69.073 30.6276 70.8288 30.6276C72.5847 30.6276 77.284 30.6276 77.284 30.6276C77.284 30.6276 79.7672 30.6163 79.7672 28.0876V11.9724H87.2964V36.9351H79.9263L79.1024 35.236C79.1024 35.236 77.6193 36.5657 76.5396 36.7476C75.46 36.9351 73.1529 36.9351 73.1529 36.9351H67.0614C67.0557 36.9408 61.362 37.0771 61.5723 31.5595Z" fill="white"/>
<path d="M131.25 8.6766C133.562 8.6766 135.437 6.80161 135.437 4.48869C135.437 2.17577 133.562 0.300781 131.25 0.300781C128.937 0.300781 127.062 2.17577 127.062 4.48869C127.062 6.80161 128.937 8.6766 131.25 8.6766Z" fill="white"/>
<path d="M113.714 3.7443V8.27315C113.714 8.27315 113.731 7.72196 113.731 10.012C113.731 12.302 111.714 12.0292 111.714 12.0292C111.714 12.0292 110.708 12.0292 104.952 12.0292C99.1953 12.0292 95.6211 15.3704 95.6211 15.3704C92.7572 17.7627 91.4502 23.6156 92.7344 28.6956C94.6153 37.0373 103.946 36.9464 103.946 36.9464C103.946 36.9464 108.492 36.9464 111.003 36.9464C113.515 36.9464 114.839 34.1734 114.839 34.1734L115.964 36.9464H121.3V3.7443H113.714ZM111.549 30.6788H105.23C101.491 30.6788 98.9794 28.5308 98.9794 24.4282C98.9794 24.1724 98.6441 19.655 103.792 18.5014C104.576 18.3253 105.48 18.3366 106.537 18.3366H112.276C112.276 18.3366 113.719 18.2173 113.719 20.0527C113.719 20.0527 113.719 27.4228 113.719 28.5081C113.719 29.5934 113.742 30.6788 111.549 30.6788Z" fill="white"/>
<path d="M158.4 12.0065H154.24C150.183 11.9269 147.694 12.2906 145.637 13.3646C139.466 16.5808 139.819 24.0929 139.836 24.3202C139.836 26.65 140.205 29.0366 141.273 31.1334C142.222 32.9858 143.717 34.486 145.546 35.4633C146.939 36.2077 148.49 36.6509 150.053 36.8441C150.786 36.9351 151.507 36.9351 152.24 36.9464C154.456 36.9748 156.678 37.0658 158.894 36.918C161.707 36.7305 164.923 36.1111 166.997 34.0427C170.555 30.4856 170.6 26.6613 170.6 24.2179C170.611 11.4098 158.4 12.0065 158.4 12.0065ZM158.82 30.639C154.61 30.6731 152.314 30.639 152.314 30.639C152.314 30.639 146.643 31.0197 146.762 25.0873C146.762 24.2406 146.762 23.6667 146.762 23.2917C146.762 23.2917 146.586 18.4048 151.882 18.4048H158.553C158.553 18.4048 163.736 18.0014 163.736 23.5872C163.901 27.3034 163.116 30.6049 158.82 30.639Z" fill="white"/>
</svg>
